<mxfile host="app.diagrams.net" agent="Mozilla/5.0 (Windows NT 10.0; Win64; x64) AppleWebKit/537.36 (KHTML, like Gecko) Chrome/130.0.0.0 Safari/537.36" version="24.8.3">
  <diagram name="Pagina-1" id="-9wmEsT6B9WGCwDP-Of4">
    <mxGraphModel dx="487" dy="254" grid="1" gridSize="10" guides="1" tooltips="1" connect="1" arrows="1" fold="1" page="1" pageScale="1" pageWidth="827" pageHeight="1169" math="0" shadow="0">
      <root>
        <mxCell id="0" />
        <mxCell id="1" parent="0" />
        <mxCell id="8ZBTqTMmdzY9TpZR314N-1" style="edgeStyle=orthogonalEdgeStyle;rounded=1;orthogonalLoop=1;jettySize=auto;html=1;entryX=0.5;entryY=0;entryDx=0;entryDy=0;curved=0;" edge="1" parent="1" source="zbo_XrMi66J28Fi3y8Hj-1" target="zbo_XrMi66J28Fi3y8Hj-2">
          <mxGeometry relative="1" as="geometry">
            <Array as="points">
              <mxPoint x="350" y="290" />
              <mxPoint x="480" y="290" />
            </Array>
          </mxGeometry>
        </mxCell>
        <mxCell id="zbo_XrMi66J28Fi3y8Hj-1" value="Business" style="text;html=1;align=center;verticalAlign=middle;whiteSpace=wrap;rounded=0;fontFamily=Times New Roman;fontSize=17;labelBorderColor=none;textShadow=1;labelBackgroundColor=#4F4FFF;fontColor=#F5F5F5;" parent="1" vertex="1">
          <mxGeometry x="319" y="310" width="60" height="30" as="geometry" />
        </mxCell>
        <mxCell id="8ZBTqTMmdzY9TpZR314N-5" style="edgeStyle=orthogonalEdgeStyle;rounded=0;orthogonalLoop=1;jettySize=auto;html=1;" edge="1" parent="1" source="zbo_XrMi66J28Fi3y8Hj-2" target="zbo_XrMi66J28Fi3y8Hj-4">
          <mxGeometry relative="1" as="geometry" />
        </mxCell>
        <mxCell id="zbo_XrMi66J28Fi3y8Hj-2" value="Progettazione" style="text;html=1;align=center;verticalAlign=middle;whiteSpace=wrap;rounded=0;fontFamily=Times New Roman;fontSize=17;labelBorderColor=none;textShadow=1;labelBackgroundColor=#4F4FFF;fontColor=#F5F5F5;" parent="1" vertex="1">
          <mxGeometry x="450" y="310" width="60" height="30" as="geometry" />
        </mxCell>
        <mxCell id="8ZBTqTMmdzY9TpZR314N-4" style="edgeStyle=orthogonalEdgeStyle;rounded=0;orthogonalLoop=1;jettySize=auto;html=1;entryX=0.5;entryY=1;entryDx=0;entryDy=0;" edge="1" parent="1" source="zbo_XrMi66J28Fi3y8Hj-3" target="zbo_XrMi66J28Fi3y8Hj-1">
          <mxGeometry relative="1" as="geometry" />
        </mxCell>
        <mxCell id="zbo_XrMi66J28Fi3y8Hj-3" value="Controllo" style="text;html=1;align=center;verticalAlign=middle;whiteSpace=wrap;rounded=0;fontFamily=Times New Roman;fontSize=17;labelBorderColor=none;textShadow=1;labelBackgroundColor=#4F4FFF;fontColor=#F5F5F5;" parent="1" vertex="1">
          <mxGeometry x="319" y="420" width="60" height="30" as="geometry" />
        </mxCell>
        <mxCell id="8ZBTqTMmdzY9TpZR314N-2" style="edgeStyle=orthogonalEdgeStyle;rounded=1;orthogonalLoop=1;jettySize=auto;html=1;entryX=0.5;entryY=1;entryDx=0;entryDy=0;curved=0;" edge="1" parent="1" source="zbo_XrMi66J28Fi3y8Hj-4" target="zbo_XrMi66J28Fi3y8Hj-3">
          <mxGeometry relative="1" as="geometry">
            <Array as="points">
              <mxPoint x="480" y="470" />
              <mxPoint x="349" y="470" />
            </Array>
          </mxGeometry>
        </mxCell>
        <mxCell id="zbo_XrMi66J28Fi3y8Hj-4" value="Planning" style="text;html=1;align=center;verticalAlign=middle;whiteSpace=wrap;rounded=0;fontFamily=Times New Roman;fontSize=17;labelBorderColor=none;textShadow=1;labelBackgroundColor=#4F4FFF;fontColor=#F5F5F5;" parent="1" vertex="1">
          <mxGeometry x="450" y="420" width="60" height="30" as="geometry" />
        </mxCell>
      </root>
    </mxGraphModel>
  </diagram>
</mxfile>
